<svg width="1024" height="1024" viewBox="0 0 1024 1024" fill="none" xmlns="http://www.w3.org/2000/svg">
<path d="M115.797 796.775C96 797.856 96 782.723 96 771.061V321.241C96 309.123 105.614 299.225 117.39 299.225H119.154C130.987 299.225 140.544 309.123 140.544 321.241V748.476C266.78 732.149 361.216 727.314 478.35 761.675C496.668 772.483 488.363 799.278 468.907 796.661L115.797 796.775Z" fill="#303030"/>
<path d="M295.737 228C415.545 235.054 484.835 280.167 484.835 280.167L484.665 720.601C338.517 659.047 181.618 695.513 181.618 695.513L181.675 251.154C181.675 251.154 208.014 228 295.737 228Z" fill="#93C3C0"/>
<path d="M555.093 796.718C535.637 799.278 527.389 772.54 545.65 761.731C662.784 727.314 757.276 732.149 883.456 748.533V321.298C883.456 309.18 893.07 299.282 904.846 299.282H906.61C918.443 299.282 928 309.18 928 321.298V771.004C928 782.723 928 797.856 908.203 796.718H555.093Z" fill="#303030"/>
<path d="M842.382 251.154L842.439 695.456C842.439 695.456 685.483 658.99 539.392 720.544L539.221 280.167C539.221 280.167 608.569 235.054 728.32 228C816.043 228 842.382 251.154 842.382 251.154Z" fill="#93C3C0"/>
</svg>
